PathFileType  4	(X/Y/Z) C:\Users\antoi\Documents\MyRepositories\mobilecap\ResultsAnalysis
DataRate	CameraRate	NumFrames	NumMarkers	Units	OrigDataRate	OrigDataStartFrame	OrigNumFrames
100.0	100.0	6	51	mm	100.0	101	134
Frame#	Time	r_knee			r_shank_antsup			r_ankle			r_calc			r_5meta			r_toe			L_knee			L_shank_antsup			L_ankle			L_calc			L_5meta			L_toe			r_sh2			r_sh3			r_sh4			L_sh2			L_sh3			r_thigh1			r_thigh2			r_thigh3			r_thigh4			r_thigh5			L_thigh1			L_thigh2			L_thigh3			L_thigh4			r.ASIS			r.PSIS			L.ASIS			L.PSIS			C7			R_Shoulder			L_Shoulder			R_Sternum			L_Sternum			R_humerus			R_elbow_med			R_elbow_lat			R_forearm			R_wrist_radius			R_wrist_ulna			L_humerus			L_elbow_med			L_elbow_lat			L_forearm			L_wrist_radius			L_wrist_ulna			R_HJC			L_HJC			R_HJC_reg			L_HJC_reg			
		X1	Y1	Z1	X2	Y2	Z2	X3	Y3	Z3	X4	Y4	Z4	X5	Y5	Z5	X6	Y6	Z6	X7	Y7	Z7	X8	Y8	Z8	X9	Y9	Z9	X10	Y10	Z10	X11	Y11	Z11	X12	Y12	Z12	X13	Y13	Z13	X14	Y14	Z14	X15	Y15	Z15	X16	Y16	Z16	X17	Y17	Z17	X18	Y18	Z18	X19	Y19	Z19	X20	Y20	Z20	X21	Y21	Z21	X22	Y22	Z22	X23	Y23	Z23	X24	Y24	Z24	X25	Y25	Z25	X26	Y26	Z26	X27	Y27	Z27	X28	Y28	Z28	X29	Y29	Z29	X30	Y30	Z30	X31	Y31	Z31	X32	Y32	Z32	X33	Y33	Z33	X34	Y34	Z34	X35	Y35	Z35	X36	Y36	Z36	X37	Y37	Z37	X38	Y38	Z38	X39	Y39	Z39	X40	Y40	Z40	X41	Y41	Z41	X42	Y42	Z42	X43	Y43	Z43	X44	Y44	Z44	X45	Y45	Z45	X46	Y46	Z46	X47	Y47	Z47	X48	Y48	Z48	X49	Y49	Z49	X50	Y50	Z50	X51	Y51	Z51	

101	1.00000000	1240.58546	495.42807	-68.94365	1298.94137	449.42807	-80.58637	1359.37053	109.78183	-108.47255	1313.07460	58.60750	-157.24888	1476.12547	84.16152	-70.62814	1514.80498	135.40524	-115.70095	974.43306	491.24595	-327.47227	980.09228	392.75807	-331.03317	860.29506	104.03771	-278.64194	794.74654	68.39665	-223.13158	949.91932	40.74546	-335.33027	1003.27487	62.35689	-285.53200	1312.97719	334.02377	-66.78933	1217.84524	432.12849	-66.14234	1238.20371	321.40634	-72.96210	896.57831	422.46989	-325.16235	869.18066	303.55158	-321.94527	1178.92500	808.90572	-31.63738	1218.31516	702.22046	-40.08266	1114.24769	659.36751	-28.81424	1073.48854	768.90578	-15.19373	1172.51525	661.83466	-12.67552	1065.58513	743.47352	-388.54385	1045.40054	611.34763	-356.70604	958.71925	764.81461	-350.56769	942.89262	627.67460	-324.24443	1162.36386	951.08619	-78.39601	974.68750	997.57841	-148.30475	1163.02104	933.30456	-325.70995	965.13715	1005.78149	-248.98330	973.75715	1400.60004	-245.19413	1053.41418	1380.17097	-53.08427	1077.74432	1368.94597	-409.78789	1111.04751	1381.83474	-206.51856	1120.86580	1381.04530	-247.61093	1041.96520	1245.48443	13.00765	978.90876	1037.68014	-38.86066	982.35663	1055.56652	31.96645	1040.72882	932.69208	69.91530	1067.30146	801.59433	90.56675	1032.69097	794.51745	102.13404	1133.07863	1267.94705	-468.87581	1204.34083	1037.68881	-426.34160	1211.74452	1070.92513	-499.13539	1324.74644	1045.66781	-498.43698	1460.89971	964.31636	-508.35130	1442.53255	942.59980	-529.46869	1080.40207	875.35093	-94.90518	1074.96825	869.38330	-301.21742	1095.72581	864.31295	-112.22953	1080.32208	877.54358	-274.61332	
102	1.01000000	1249.32972	492.47447	-70.80408	1309.60928	448.75270	-81.92009	1381.34989	110.63352	-107.41068	1337.16913	56.86223	-155.57748	1499.37112	89.47547	-69.60159	1535.80169	141.92657	-115.12002	981.52196	490.48331	-327.43875	985.91964	391.73849	-331.15009	861.25084	104.95840	-278.92709	795.18269	69.48042	-223.37085	950.08794	40.67008	-335.41715	1003.59296	62.05487	-285.80848	1327.00163	333.85538	-67.48969	1228.75600	429.03072	-67.95977	1252.70423	318.90605	-73.83466	902.70040	422.81684	-325.52881	873.50634	304.22750	-322.30738	1188.71011	804.96971	-31.15196	1226.82431	697.90144	-40.84630	1122.00903	655.95847	-31.10651	1082.45727	765.96430	-16.42001	1180.40660	657.70055	-14.13463	1075.59931	741.72335	-388.38117	1053.93671	609.89077	-356.51923	968.88796	764.19090	-350.64536	951.53510	627.28223	-324.36490	1173.95818	948.62183	-77.61873	986.26590	995.02759	-147.37894	1174.67971	931.09674	-324.80970	976.65654	1003.48880	-248.08730	985.30218	1398.24709	-244.86819	1064.96588	1377.93521	-52.56386	1090.02073	1366.61871	-409.32368	1122.84933	1379.57207	-205.96928	1132.70159	1378.70980	-247.02775	1052.61170	1243.24599	13.33766	988.55245	1035.84272	-39.10753	991.38993	1053.89473	31.70238	1047.27548	930.19053	70.44279	1070.89563	798.68877	91.46269	1036.28880	792.14492	102.77466	1146.72463	1266.56710	-468.34099	1220.86201	1037.21164	-426.20495	1228.32938	1071.05347	-498.76769	1341.86539	1048.89880	-496.92063	1480.31960	971.98338	-505.73634	1462.97166	949.74721	-527.26114	1092.03064	872.84873	-94.14923	1086.61280	867.13384	-300.46894	1107.48923	861.69483	-111.61007	1092.00750	875.32647	-273.86046	
103	1.02000000	1259.10726	490.09871	-72.38913	1320.73538	447.93975	-83.36954	1399.93385	111.10437	-106.32455	1357.01725	55.50288	-153.64964	1518.77378	93.37031	-68.65351	1553.56231	146.27847	-114.89474	989.10460	489.65498	-327.35358	992.24768	390.63044	-331.22341	862.35723	106.04004	-279.25752	795.72971	70.88152	-223.66708	950.30149	40.59731	-335.51341	1003.96909	61.72903	-286.11276	1340.47618	333.51061	-68.15872	1240.18325	426.63111	-69.23122	1266.57261	316.93545	-74.18897	909.36916	423.19392	-325.91726	878.25391	304.98367	-322.67207	1198.76216	801.60437	-30.55110	1235.86795	694.22640	-41.48257	1130.54046	652.96840	-33.25665	1091.76612	763.22180	-17.59119	1188.92101	654.08971	-15.48226	1085.87584	739.97217	-388.17383	1062.86608	608.41327	-356.33567	979.35973	763.44516	-350.48353	960.64510	626.78144	-324.30388	1185.72447	946.22969	-76.84236	997.95349	992.60494	-146.37933	1186.41710	928.97431	-323.95377	988.27668	1001.27740	-247.11719	996.96041	1395.98117	-244.36938	1076.66700	1375.76578	-51.91252	1102.27674	1364.36880	-408.73103	1134.74497	1377.40023	-205.30466	1144.60762	1376.47325	-246.34466	1063.56997	1241.04379	13.77896	998.55156	1034.01878	-39.23384	1000.86186	1052.24507	31.55236	1054.24044	927.74313	70.95455	1074.86667	795.82078	92.29146	1040.37217	789.91674	103.38383	1160.35459	1265.23885	-467.69169	1237.00122	1036.70588	-425.74203	1244.44261	1071.05105	-498.10139	1358.39199	1051.84883	-495.20230	1498.97548	979.15471	-503.01377	1482.50669	956.48243	-524.83253	1103.80966	870.43511	-93.37541	1098.32199	864.97718	-299.70020	1119.34774	859.21720	-110.95160	1103.77169	873.17599	-273.10133	
104	1.03000000	1269.92634	488.26392	-73.54651	1332.28348	446.89385	-84.82025	1415.12933	110.91228	-105.41969	1372.49344	54.44706	-151.73448	1534.34706	95.28946	-67.95106	1568.25901	147.94299	-115.08203	997.20252	488.77110	-327.21321	999.05100	389.44857	-331.24912	863.62439	107.31658	-279.63002	796.40771	72.67102	-224.02442	950.56707	40.53239	-335.62543	1004.42054	61.37884	-286.43485	1353.37661	332.82674	-68.77228	1252.07654	424.84317	-69.84514	1279.71861	315.34878	-74.04724	916.59956	423.60221	-326.30980	883.42441	305.84904	-323.01660	1209.28229	798.96453	-29.96813	1245.70509	691.36666	-41.98493	1140.10620	650.53864	-34.97309	1101.70224	760.82966	-18.52817	1198.38472	651.20266	-16.59214	1096.41621	738.26122	-387.93470	1072.17769	606.92992	-356.16209	990.11631	762.63431	-350.07588	970.21391	626.17894	-324.02466	1197.66893	943.92760	-76.08870	1009.76503	990.39104	-145.33973	1198.28102	926.96030	-323.14689	1000.01130	999.19068	-246.11295	1008.73724	1393.83875	-243.70002	1088.50242	1373.70061	-51.13326	1114.52352	1362.24699	-408.00782	1146.71609	1375.36908	-204.52609	1156.57953	1374.39746	-245.55457	1074.82168	1238.91486	14.33211	1008.89625	1032.26668	-39.24721	1010.78768	1050.64590	31.51951	1061.65433	925.38427	71.45570	1079.29926	793.03501	93.05243	1044.96419	787.85400	103.99025	1173.93603	1263.98517	-466.89685	1252.71718	1036.18290	-424.97127	1260.04779	1070.92856	-497.17284	1374.31396	1054.51010	-493.29915	1516.83452	985.79884	-500.17970	1501.12252	962.75165	-522.19080	1115.72883	868.15198	-92.60346	1110.11180	862.94970	-298.93205	1131.29105	856.97620	-110.23712	1115.60404	871.12795	-272.31222	
105	1.04000000	1281.63685	486.89127	-74.17856	1344.13735	445.57930	-86.12968	1427.16404	109.93720	-104.82813	1383.84714	53.72852	-150.07470	1546.36224	94.89966	-67.62052	1580.22936	146.69933	-115.66618	1005.83932	487.84857	-327.02215	1006.30417	388.21532	-331.23084	865.06515	108.83420	-280.05388	797.23940	74.92100	-224.44857	950.89038	40.48369	-335.76180	1004.96005	61.00044	-286.76963	1365.65926	331.72579	-69.29168	1264.28958	423.55156	-69.79988	1292.07296	314.02829	-73.49703	924.39372	424.05227	-326.67945	889.00619	306.85289	-323.31791	1220.45246	797.13018	-29.52699	1256.51113	689.39987	-42.35221	1150.90397	648.79015	-35.96595	1112.51054	758.94495	-19.04469	1209.02910	649.17333	-17.32915	1107.19822	736.64427	-387.66894	1081.85087	605.46311	-356.00270	1001.11643	761.80037	-349.42911	980.22100	625.48172	-323.49881	1209.79294	941.75480	-75.36649	1021.71486	988.45436	-144.29942	1210.31587	925.07388	-322.38527	1011.88140	997.25734	-245.11348	1020.62860	1391.85623	-242.86760	1100.45625	1371.77266	-50.23044	1126.77801	1360.30024	-407.15927	1158.75393	1373.52159	-203.63364	1168.62177	1372.53467	-244.64906	1086.34465	1236.89273	14.99488	1019.57567	1030.64105	-39.16243	1021.16945	1049.12037	31.60037	1069.55504	923.15024	71.95506	1084.25212	790.34896	93.73066	1050.09752	785.98162	104.62440	1187.43015	1262.82429	-465.92564	1267.95929	1035.65041	-423.92343	1275.11903	1070.70116	-496.02301	1389.62102	1056.87466	-491.22827	1533.86403	991.89124	-497.23244	1518.81773	968.50889	-519.34436	1127.78412	866.05022	-91.83926	1122.00992	861.07671	-298.17122	1143.31366	855.06315	-109.44303	1127.50980	869.21040	-271.46784	
106	1.05000000	1293.98048	485.89522	-74.25618	1356.13852	444.04001	-87.14926	1436.48448	108.23777	-104.57239	1391.69256	53.44871	-148.83845	1555.32351	92.19465	-67.69854	1589.93740	142.69156	-116.55310	1015.03485	486.90795	-326.78402	1013.99545	386.96023	-331.17383	866.70011	110.64774	-280.54313	798.25271	77.69925	-224.94509	951.27471	40.46236	-335.93115	1005.58755	60.58420	-287.11828	1377.29871	330.23796	-69.66600	1276.61875	422.63950	-69.19466	1303.62611	312.90375	-72.66461	932.75275	424.56443	-326.98969	894.98324	308.02392	-323.55388	1232.39450	796.10582	-29.30936	1268.34440	688.31093	-42.58018	1163.02436	647.81473	-36.02388	1124.34086	757.70024	-18.98800	1220.93970	648.05172	-17.58332	1118.18223	735.17537	-387.36979	1091.86554	604.04058	-355.85506	1012.31506	760.95941	-348.54493	990.64250	624.69834	-322.71204	1222.09205	939.78278	-74.67090	1033.81318	986.84707	-143.29244	1222.55326	923.32964	-321.65532	1023.90415	995.49757	-244.15021	1032.62489	1390.07043	-241.88505	1112.51621	1370.00823	-49.21077	1139.05690	1358.57209	-406.19613	1170.86254	1371.89235	-202.62695	1180.74376	1370.92299	-243.62321	1098.11753	1235.00622	15.76126	1030.58520	1029.17916	-38.99559	1031.99585	1047.68639	31.78557	1077.97944	921.07583	72.46455	1089.75889	787.75857	94.31375	1055.81647	784.32857	105.31676	1200.79603	1261.77005	-464.76061	1282.67560	1035.11121	-422.63797	1289.64200	1070.38444	-494.69169	1404.30342	1058.93252	-489.00920	1550.04024	997.40615	-494.17704	1535.60396	973.71526	-516.30420	1139.97823	864.19578	-91.06854	1134.04744	859.37324	-297.40330	1155.42347	853.55217	-108.54281	1139.50760	867.44725	-270.54254	
